<svg width="22" height="22" viewBox="0 0 22 22" fill="none" xmlns="http://www.w3.org/2000/svg">
<g clip-path="url(#clip0_72_29)">
<path d="M10.4585 0.0121682C4.60793 0.28726 -0.0219165 5.12887 7.80403e-05 10.9498C7.80403e-05 12.7214 0.439969 14.394 1.19878 15.8685L0.0330685 21.4913C-0.0329151 21.7994 0.242018 22.0635 0.549942 21.9865L6.10357 20.6771C7.53321 21.3813 9.12781 21.7884 10.8324 21.8104C16.8149 21.8985 21.8077 17.1889 21.9946 11.2469C22.1926 4.8978 16.8919 -0.284931 10.4585 0.0121682ZM17.0898 16.9578C15.4622 18.5754 13.2958 19.4556 10.9974 19.4556C9.65569 19.4556 8.35801 19.1586 7.1703 18.5644L6.40049 18.1792L2.99134 18.9825L3.70616 15.5273L3.32126 14.7901C2.70541 13.5797 2.38648 12.2813 2.38648 10.9058C2.38648 8.62804 3.27727 6.48232 4.90486 4.86479C6.52146 3.26925 8.70992 2.36695 10.9974 2.36695C13.2958 2.36695 15.4622 3.25825 17.0898 4.86479C18.7174 6.48232 19.6082 8.62804 19.6082 10.9058C19.6082 13.1836 18.6954 15.3623 17.0898 16.9578Z" fill="#252525"/>
<path d="M16.331 13.283L14.1975 12.6778C13.9226 12.6008 13.6147 12.6778 13.4167 12.8869L12.8998 13.4151C12.6799 13.6351 12.35 13.7122 12.0531 13.5911C11.0413 13.184 8.92983 11.3134 8.37997 10.378C8.22601 10.103 8.248 9.77284 8.44595 9.51976L8.89684 8.93657C9.0728 8.70549 9.11679 8.39739 8.99582 8.1333L8.10504 6.11963C7.88509 5.63547 7.26925 5.49242 6.86235 5.83353C6.26849 6.3287 5.56467 7.08795 5.47669 7.93523C5.32272 9.42073 5.96057 11.2803 8.39097 13.5251C11.1843 16.111 13.4277 16.4521 14.8794 16.111C15.7042 15.9129 16.364 15.1096 16.7819 14.4604C17.0678 14.0203 16.8479 13.4261 16.331 13.283Z" fill="#252525"/>
</g>
<defs>
<clipPath id="clip0_72_29">
<rect width="22" height="22" fill="white"/>
</clipPath>
</defs>
</svg>
